<svg viewBox="0 0 8 8" fill="currentColor" xmlns="http://www.w3.org/2000/svg">
  <path fill-rule="evenodd" clip-rule="evenodd" d="M7.71429 0.697143C7.7981 0.384762 7.89333 0.152381 8 0H3.01714C2.75048 0 2.46476 0.0190476 2.16 0.0571428C1.85524 0.095238 1.56952 0.167619 1.30286 0.274286C1.04381 0.380952 0.826667 0.529524 0.651429 0.72C0.476191 0.910476 0.388571 1.1619 0.388571 1.47429C0.388571 1.69524 0.422857 1.87429 0.491429 2.01143C0.56 2.14095 0.64381 2.24 0.742857 2.30857C0.841905 2.37714 0.948571 2.42286 1.06286 2.44571C1.17714 2.46857 1.28 2.48 1.37143 2.48H1.48571C1.52381 2.47238 1.55429 2.46857 1.57714 2.46857C1.60762 2.46857 1.63429 2.46476 1.65714 2.45714C1.61905 2.0381 1.69143 1.66095 1.87429 1.32571C1.95048 1.18095 2.05333 1.04381 2.18286 0.914286C2.31238 0.777143 2.48 0.655238 2.68571 0.548572C2.89143 0.441905 3.13905 0.358096 3.42857 0.297143C3.7181 0.228572 4.06095 0.194286 4.45714 0.194286H4.86857V0.285715C4.57143 0.285715 4.32381 0.407619 4.12571 0.651429C3.93524 0.895239 3.77143 1.2 3.63429 1.56571C3.49714 1.93143 3.37524 2.32762 3.26857 2.75429C3.1619 3.18095 3.04381 3.57714 2.91429 3.94286C2.78476 4.30857 2.62857 4.61333 2.44571 4.85714C2.27048 5.10095 2.0419 5.22286 1.76 5.22286C1.6 5.22286 1.46286 5.19238 1.34857 5.13143C1.2419 5.07048 1.15429 4.9981 1.08571 4.91429C1.0019 4.83048 0.937143 4.73143 0.891429 4.61714C0.72381 4.72381 0.575238 4.85333 0.445714 5.00571C0.339048 5.14286 0.23619 5.31809 0.137143 5.53143C0.0457143 5.74476 0 6 0 6.29714C0 6.54857 0.0571429 6.78095 0.171429 6.99429C0.285714 7.2 0.434286 7.37905 0.617143 7.53143C0.8 7.67619 1.00571 7.79048 1.23429 7.87429C1.47048 7.9581 1.70286 8 1.93143 8C2.31238 8 2.62095 7.90095 2.85714 7.70286C3.09333 7.50476 3.28 7.2419 3.41714 6.91429C3.5619 6.58667 3.66476 6.21333 3.72571 5.79429C3.78667 5.36762 3.83238 4.92952 3.86286 4.48C3.87084 4.31245 3.88114 4.11936 3.89181 3.91922C3.91172 3.546 3.93294 3.14824 3.94286 2.84571C3.96571 2.38095 4.00381 1.96571 4.05714 1.6C4.1181 1.23429 4.20952 0.940952 4.33143 0.72C4.45333 0.491429 4.63238 0.377143 4.86857 0.377143C4.92952 0.499048 4.98667 0.704762 5.04 0.994286C5.0781 1.2381 5.11238 1.57714 5.14286 2.01143C5.18095 2.44571 5.2 3.02095 5.2 3.73714V4.04571C5.2 4.13714 5.19619 4.32381 5.18857 4.42286C5.17333 5.04762 5.13524 5.58857 5.07429 6.04571C5.01333 6.49524 4.94857 6.86476 4.88 7.15429C4.81143 7.48952 4.73143 7.77143 4.64 8H8C7.89333 7.73333 7.7981 7.39429 7.71429 6.98286C7.64571 6.62476 7.58095 6.17524 7.52 5.63429C7.45905 5.09333 7.42857 4.4419 7.42857 3.68C7.42857 2.9181 7.45905 2.29714 7.52 1.81714C7.58095 1.33714 7.64571 0.96381 7.71429 0.697143Z" fill="currentColor"/>
</svg>
